#!OML:ASF E:/inclinewalkrobotboard/Project1/Captureday1/Session1/subject1.ASF
:FULLY-SPECIFIED
:DEGREES
376
root 0 0 0 -3.4257672265124057 3.9672902806558383 2.651084815562877
lowerback 11.691189626990663 -0.9669919207647193 -3.7324709411438315
upperback 1.2535317070702146 -1.5472422325905326 1.071138482772299
thorax -5.169460145614366 -0.6674296143757636 3.366092524695784
lowerneck -17.70654281617741 -2.8705844048622504 -2.50809591596434
upperneck 17.616093329524542 -3.127325632185463 -0.3457798790699158
head 8.305461573590772 -1.68380432269574 -0.07015988340618451
rclavicle 3.0283214778588114E-15 1.4647837375945332E-15
rhumerus -50.53982367746511 -18.953807044613086 -73.13454509191811
rradius 23.573710983565952
rwrist -1.569987690255168
rhand -21.497798153826775 27.775289524742618
rfingers 7.125020000000054
rthumb 4.864865984269869 -2.474083567307048
lclavicle -7.989766574211885E-18 -7.93164384250353E-15
lhumerus -34.89114067581927 -1.642059660030025 84.19838901707536
lradius 29.032690195695714
lwrist 9.094771937622305
lhand -31.53071289481751 24.573733143202453
lfingers 7.12502000000004
lthumb -4.739632496693407 55.245425359669355
rfemur -29.03243251468126 28.668573605828925 41.77077708085929
rtibia 23.495838860768767
rfoot -8.155490794141658 -13.57009220911931
rtoes -3.601445091793021
lfemur 2.3053251776019934 -4.6490269581421995 -22.99113560787768
ltibia 28.1795380096969
lfoot -6.884812615341485 -4.491555345364869
ltoes -9.725566317013486
377
root 0 0 0 -3.4331147087322584 3.8781971817654934 2.628511132491722
lowerback 11.698724977282815 -0.9584915924991726 -3.7056351725165797
upperback 1.255212472893719 -1.5340482318985489 1.0765867799484694
thorax -5.174673381356039 -0.6611277680211833 3.355819292071285
lowerneck -17.703601265357577 -2.871076126899111 -2.499164040610683
upperneck 17.620448290849165 -3.1298062441816596 -0.3491527607818572
head 8.305498415885191 -1.6846756409827803 -0.07279334305869156
rclavicle 3.0261278185366872E-15 1.498939777851055E-15
rhumerus -50.55615251675018 -18.968030811946008 -73.24398319768012
rradius 23.53912489875366
rwrist -1.6249861433087354
rhand -21.471012265465692 27.74256351931558
rfingers 7.125020000000054
rthumb 4.89048518594041 -2.504647768360691
lclavicle 2.2864440296759333E-17 -7.872457186209695E-15
lhumerus -34.85207072660327 -1.6699045263012362 84.24532699356911
lradius 29.055008937658695
lwrist 9.205724250030958
lhand -31.47344189676852 24.626992560091455
lfingers 7.12502000000004
lthumb -4.685613153824576 55.28788429649717
rfemur -28.984978219954584 28.631023423682365 41.76371089453647
rtibia 23.498398513445853
rfoot -8.165960161859722 -13.520187116382722
rtoes -3.537783532882216
lfemur 1.7035455014100336 -4.282739785444628 -22.814074878143174
ltibia 29.977434466721515
lfoot -6.124510506519798 -5.124990055786583
ltoes -10.160107787805527
378
root 0 0 0 -3.438217969074511 3.733984288161391 2.599829881076495
lowerback 11.708757623984539 -0.9444639098802079 -3.6666621350337536
upperback 1.2567878568436885 -1.5128395280745786 1.0823068683032353
thorax -5.1826320956797165 -0.650894093324172 3.3380060952049773
lowerneck -17.697412046755478 -2.8724091760005495 -2.486867335314369
upperneck 17.627202733134943 -3.134693698652835 -0.3528133814209289
head 8.305075891431402 -1.6865549972629945 -0.07590383574867876
rclavicle 3.0465092834882846E-15 1.5423429904389634E-15
rhumerus -50.55323614780303 -18.971755691125246 -73.36025192616079
rradius 23.514410489366444
rwrist -1.6789223869666507
rhand -21.45250225022873 27.71607697120143
rfingers 7.125020000000054
rthumb 4.908202223937668 -2.5297399305619894
lclavicle 5.216510973256743E-17 -7.805889065418128E-15
lhumerus -34.8520246070331 -1.6892224357399979 84.29493035647391
lradius 29.072320040786078
lwrist 9.30698138064513
lhand -31.416132928588564 24.67268225743536
lfingers 7.12502000000004
lthumb -4.631459207598557 55.32236257593764
rfemur -28.91442384859839 28.55624312006637 41.735559482397775
rtibia 23.509376961865453
rfoot -8.19702914854163 -13.450546139870482
rtoes -3.483434437844192
lfemur 0.8013433341606202 -3.7842690034585598 -22.60335311298181
ltibia 32.25730963921339
lfoot -5.193761045021137 -5.865054976402529
ltoes -10.711975013765924
379
root 0 0 0 -3.4442366851941983 3.5344593169168554 2.5611323037832463
lowerback 11.721996455101205 -0.9245658860807389 -3.612555644257718
upperback 1.2584921096106552 -1.4827230432013236 1.0891935680048583
thorax -5.193502272416589 -0.6363250211576734 3.311849904105106
lowerneck -17.688711286827242 -2.8748864268840544 -2.4708682787361353
upperneck 17.637560450100658 -3.142520361898053 -0.35674520923243147
head 8.304956826041952 -1.6896269351405504 -0.07975009884513717
rclavicle 3.1054615780185746E-15 1.6148482970826432E-15
rhumerus -50.537523762664804 -18.96936297141493 -73.5062671854662
rradius 23.490751632878535
rwrist -1.738743187934599
rhand -21.43587902676095 27.68853954479861
rfingers 7.125020000000054
rthumb 4.924148826910379 -2.5560666208042733
lclavicle 9.139141664285177E-17 -7.7192384617547E-15
lhumerus -34.88735001557098 -1.7029928256442126 84.35199943835016
lradius 29.083916228563012
lwrist 9.40405909314859
lhand -31.353565231795773 24.71271062366064
lfingers 7.12502000000004
lthumb -4.572172106259984 55.34993111160509
rfemur -28.818042379135605 28.44409413939178 41.69030590313427
rtibia 23.52614928658854
rfoot -8.251218463199653 -13.354321578525514
rtoes -3.4308255078212717
lfemur -0.6238960466701613 -3.0187287987293647 -22.33496659161726
ltibia 35.531511478417066
lfoot -3.906829461052787 -6.849757146557444
ltoes -11.519103755522702
380
root 0 0 0 -3.4558517940657474 3.250910675113179 2.502238044193607
lowerback 11.740993713886851 -0.8951522803782277 -3.531438153719848
upperback 1.2608440845181228 -1.4377027686212316 1.0988687828417554
thorax -5.208794452279261 -0.614545153728618 3.2717029291862083
lowerneck -17.677074384321042 -2.8795229447512565 -2.4488754215705715
upperneck 17.65473992520119 -3.1555627373329185 -0.36081803380518185
head 8.306190002568986 -1.6947692949993982 -0.08495104538917087
rclavicle 3.240038957561018E-15 1.7527697596609213E-15
rhumerus -50.509491386236455 -18.963428485369644 -73.72605885175886
rradius 23.458357846246354
rwrist -1.8177791497130507
rhand -21.41379813155046 27.650460712496617
rfingers 7.125020000000054
rthumb 4.945401251944155 -2.592383395356313
lclavicle 1.5857043852371372E-16 -7.587963299758911E-15
lhumerus -34.972350646586264 -1.7116562329788412 84.42668143135401
lradius 29.085946530472825
lwrist 9.50134232246269
lhand -31.276985196617023 24.74620610731856
lfingers 7.125020000000039
lthumb -4.499332402423441 55.368092545151846
rfemur -28.67788240472882 28.272675528797834 41.62198667266688
rtibia 23.54953668351773
rfoot -8.343207617441161 -13.209403249096669
rtoes -3.3722203582819894
lfemur -3.022409369013616 -1.7251546981932346 -21.92815933503242
ltibia 40.791899926069966
lfoot -1.9163166210040288 -8.349791912569579
ltoes -12.820689272148895
381
root 0 0 0 -3.4852688972416637 2.806959153506167 2.39679824246047
lowerback 11.772449495889283 -0.8458986633640342 -3.3912057960539226
upperback 1.265840751970563 -1.3609722938759707 1.1150959358307497
thorax -5.231667455197861 -0.5774839496900928 3.2014368503236343
lowerneck -17.660865048814777 -2.8890325214730224 -2.41511849008453
upperneck 17.685415131237857 -3.179893352611731 -0.3636641791268369
head 8.31066576889731 -1.7043278053495077 -0.09267716683308813
rclavicle 3.506877980138902E-15 2.0054436416007193E-15
rhumerus -50.45750319263178 -18.95520969477137 -74.09380967251916
rradius 23.40608383103272
rwrist -1.9409596372768654
rhand -21.376228606622703 27.587679702123125
rfingers 7.125020000000054
rthumb 4.981652232399167 -2.651829060958672
lclavicle 2.755218412766911E-16 -7.373023815931894E-15
lhumerus -35.14246959249681 -1.7161269490211275 84.53431680174914
lradius 29.07235462776045
lwrist 9.609124203584525
lhand -31.16938501282511 24.771536626452363
lfingers 7.125020000000039
lthumb -4.396637152002818 55.37175554581508
rfemur -28.45592890958841 27.99694519853216 41.514798845916985
rtibia 23.582898174476206
rfoot -8.501236707965965 -12.97392480801274
rtoes -3.2953484002301714
lfemur -6.459891157361511 0.22610292624998785 -21.07194649317448
ltibia 48.720664885251054
lfoot 0.9800269026643136 -10.702718841002714
ltoes -14.595240078891008
382
root 0 0 0 -3.568647368917272 2.0787760177238432 2.184797633635144
lowerback 11.832849296849503 -0.7544456636389845 -3.1201432148205885
upperback 1.2821973749007913 -1.2152589335143966 1.1458826889224896
thorax -5.263849922366015 -0.5072664947683831 3.064024245258988
lowerneck -17.638209313953446 -2.909089165171425 -2.359497223150918
upperneck 17.734511552163323 -3.227433941902016 -0.35829304358945624
head 8.319537925788904 -1.7228447908753584 -0.10385659041030992
rclavicle 3.807454520440167E-15 2.276234978051834E-15
rhumerus -50.3344275912681 -18.9418632790387 -74.60518796588775
rradius 23.35075844278454
rwrist -2.1380007544885267
rhand -21.324504891076174 27.4991043673688
rfingers 7.125020000000054
rthumb 5.031616693592781 -2.7360363832711556
lclavicle 3.7025953494047316E-16 -7.104075390047977E-15
lhumerus -35.40482363914431 -1.7323103838690113 84.66667390481781
lradius 29.058653578228757
lwrist 9.780368231194231
lhand -31.0094008044805 24.806598557629442
lfingers 7.125020000000039
lthumb -4.244214496689388 55.37316837176591
rfemur -28.136834613108206 27.630488757992907 41.37129550686589
rtibia 23.62486812700054
rfoot -8.71374637306944 -12.643318112743957
rtoes -3.1796327648555476
lfemur -8.77864229837428 1.7839540011319457 -19.408353218245882
ltibia 55.97504966064493
lfoot 3.5032479677819772 -13.365311457047518
ltoes -15.600215495315643
383
root 0 0 0 -3.7773776017737006 1.0753251025848591 1.791398840388874
lowerback 11.95372107148673 -0.5971766615531233 -2.633148369432032
upperback 1.3293132554514155 -0.956963312312517 1.198421588934539
thorax -5.2988462117025925 -0.3826549440802889 2.8106620523313124
lowerneck -17.61683701848429 -2.9475822592206615 -2.279292235035165
upperneck 17.793329918097783 -3.3105467662218153 -0.3289471868219831
head 8.33239054754039 -1.7552511054927797 -0.11669406839429941
rclavicle 3.721768865626775E-15 2.2432150867810494E-15
rhumerus -50.121932756247816 -18.913171659915136 -74.98609715835869
rradius 23.3573593389226
rwrist -2.371558967395199
rhand -21.296616632022634 27.43083603473834
rfingers 7.125020000000054
rthumb 5.058546499192772 -2.8042924439096186
lclavicle 2.0922849045137455E-16 -6.967388284561074E-15
lhumerus -35.63717196656347 -1.7714584527173773 84.77942849677646
lradius 29.083912925157836
lwrist 10.056784699287974
lhand -30.82092857002484 24.882443736250345
lfingers 7.125020000000039
lthumb -4.0659321379606475 55.407154271284334
rfemur -27.827387834721492 27.34632329434993 41.248417547873515
rtibia 23.666034844827028
rfoot -8.85017352255765 -12.368613279115463
rtoes -3.0020076318290414
lfemur -9.578699825607536 2.247129064123717 -17.990385824013853
ltibia 59.44127733497916
lfoot 4.593051449377356 -14.891962326505936
ltoes -15.72206103286844
